<?xml version="1.0" encoding="UTF-8"?>
<svg width="277px" height="87px" viewBox="0 0 277 87" version="1.1" xmlns="http://www.w3.org/2000/svg" xmlns:xlink="http://www.w3.org/1999/xlink">
    <!-- Generator: Sketch 57 (83077) - https://sketch.com -->
    <title>COLUMBIAHUMANRIGHTSLAWREVIEW</title>
    <desc>Created with Sketch.</desc>
    <g id="Page-1" stroke="none" stroke-width="1" fill="none" fill-rule="evenodd">
        <path d="M12.212,0.792 C18.836,0.792 23.12,4.608 23.372,10.584 L16.928,10.584 C16.64,7.812 14.912,6.192 12.212,6.192 C8.828,6.192 6.74,9.216 6.74,14.184 C6.74,19.152 8.828,22.176 12.14,22.176 C14.84,22.176 16.604,20.52 16.964,17.64 L23.48,17.64 C22.976,24.012 18.656,27.576 12.14,27.576 C4.76,27.576 0.224,22.5 0.224,14.184 C0.224,5.868 4.796,0.792 12.212,0.792 Z M37.816,0.792 C45.448,0.792 50.2,5.94 50.2,14.184 C50.2,22.428 45.448,27.576 37.816,27.576 C30.148,27.576 25.396,22.428 25.396,14.184 C25.396,5.94 30.148,0.792 37.816,0.792 Z M37.816,6.192 C34.072,6.192 31.912,9.144 31.912,14.184 C31.912,19.224 34.072,22.176 37.816,22.176 C41.524,22.176 43.684,19.224 43.684,14.184 C43.684,9.144 41.524,6.192 37.816,6.192 Z M59.568,21.708 L71.16,21.708 L71.16,27 L53.34,27 L53.34,1.368 L59.568,1.368 L59.568,21.708 Z M92.984,1.368 L92.984,17.064 C92.984,23.832 89.204,27.576 82.436,27.576 C75.704,27.576 71.924,23.832 71.924,17.064 L71.924,1.368 L78.152,1.368 L78.152,16.92 C78.152,20.304 79.664,22.104 82.436,22.104 C85.244,22.104 86.756,20.304 86.756,16.92 L86.756,1.368 L92.984,1.368 Z M128.416,27 L122.548,27 L122.548,14.472 C122.548,11.304 122.62,8.136 122.764,5.004 L122.692,5.004 C121.972,8.1 121.108,11.268 120.244,14.328 L116.608,27 L109.228,27 L105.592,14.328 C104.728,11.268 103.864,8.1 103.144,5.004 L103.072,5.004 C103.216,8.136 103.288,11.304 103.288,14.472 L103.288,27 L97.42,27 L97.42,1.368 L107.392,1.368 L110.668,12.744 C111.532,15.876 112.288,19.044 112.9,22.176 L112.972,22.176 C113.548,19.044 114.304,15.876 115.168,12.744 L118.48,1.368 L128.416,1.368 L128.416,27 Z M133.068,1.368 L143.076,1.368 C149.448,1.368 152.4,4.032 152.4,7.956 C152.4,10.944 150.996,12.78 148.044,13.824 L148.044,13.896 C151.392,14.652 153.048,16.632 153.048,19.872 C153.048,24.228 149.592,27 143.688,27 L133.068,27 L133.068,1.368 Z M139.188,6.192 L139.188,11.736 L142.428,11.736 C145.2,11.736 146.388,10.836 146.388,8.928 C146.388,7.02 145.236,6.192 142.644,6.192 L139.188,6.192 Z M139.188,16.308 L139.188,22.14 L142.572,22.14 C145.488,22.14 146.64,21.24 146.64,19.296 C146.64,17.244 145.452,16.308 142.464,16.308 L139.188,16.308 Z M162.38,27 L156.152,27 L156.152,1.368 L162.38,1.368 L162.38,27 Z M181.108,21.564 L171.82,21.564 L170.164,27 L163.612,27 L172.36,1.368 L180.532,1.368 L189.28,27 L182.728,27 L181.108,21.564 Z M179.596,16.452 L179.056,14.724 C178.12,11.664 177.22,8.496 176.464,5.4 L176.392,5.4 C175.636,8.496 174.772,11.664 173.872,14.724 L173.368,16.452 L179.596,16.452 Z M23.66,57 L17.432,57 L17.432,46.38 L7.964,46.38 L7.964,57 L1.736,57 L1.736,31.368 L7.964,31.368 L7.964,41.088 L17.432,41.088 L17.432,31.368 L23.66,31.368 L23.66,57 Z M49.156,31.368 L49.156,47.064 C49.156,53.832 45.376,57.576 38.608,57.576 C31.876,57.576 28.096,53.832 28.096,47.064 L28.096,31.368 L34.324,31.368 L34.324,46.92 C34.324,50.304 35.836,52.104 38.608,52.104 C41.416,52.104 42.928,50.304 42.928,46.92 L42.928,31.368 L49.156,31.368 Z M84.588,57 L78.72,57 L78.72,44.472 C78.72,41.304 78.792,38.136 78.936,35.004 L78.864,35.004 C78.144,38.1 77.28,41.268 76.416,44.328 L72.78,57 L65.4,57 L61.764,44.328 C60.9,41.268 60.036,38.1 59.316,35.004 L59.244,35.004 C59.388,38.136 59.46,41.304 59.46,44.472 L59.46,57 L53.592,57 L53.592,31.368 L63.564,31.368 L66.84,42.744 C67.704,45.876 68.46,49.044 69.072,52.176 L69.144,52.176 C69.72,49.044 70.476,45.876 71.34,42.744 L74.652,31.368 L84.588,31.368 L84.588,57 Z M103.316,51.564 L94.028,51.564 L92.372,57 L85.82,57 L94.568,31.368 L102.74,31.368 L111.488,57 L104.936,57 L103.316,51.564 Z M101.804,46.452 L101.264,44.724 C100.328,41.664 99.428,38.496 98.672,35.4 L98.6,35.4 C97.844,38.496 96.98,41.664 96.08,44.724 L95.576,46.452 L101.804,46.452 Z M136.12,57 L127.12,57 L122.656,46.884 C121.18,43.572 119.74,40.08 118.48,36.624 L118.408,36.624 C118.588,40.224 118.696,43.824 118.696,47.424 L118.696,57 L112.72,57 L112.72,31.368 L121.684,31.368 L126.184,41.484 C127.624,44.796 129.064,48.288 130.36,51.744 L130.432,51.744 C130.216,48.144 130.144,44.544 130.144,40.944 L130.144,31.368 L136.12,31.368 L136.12,57 Z M148.196,31.368 L158.6,31.368 C165.152,31.368 168.032,34.032 168.032,38.676 C168.032,41.808 166.232,44.076 163.316,44.94 L163.316,45.012 C165.152,45.66 166.052,46.848 167.24,50.16 L169.724,57 L163.028,57 L161.084,51.204 C160.184,48.576 159.176,47.64 156.764,47.64 L154.424,47.64 L154.424,57 L148.196,57 L148.196,31.368 Z M154.424,36.192 L154.424,42.924 L157.844,42.924 C160.724,42.924 161.876,41.628 161.876,39.468 C161.876,37.2 160.328,36.192 157.592,36.192 L154.424,36.192 Z M178.264,57 L172.036,57 L172.036,31.368 L178.264,31.368 L178.264,57 Z M193.824,30.792 C200.268,30.792 204.408,34.212 204.876,39.54 L198.18,39.54 C197.82,37.308 196.308,36.012 193.824,36.012 C190.188,36.012 187.92,39.144 187.92,44.292 C187.92,49.548 190.152,52.752 193.788,52.752 C196.992,52.752 198.864,50.808 198.936,47.424 L193.428,47.424 L193.428,42.6 L204.768,42.6 L204.768,57 L199.44,57 L199.44,54.408 L199.368,54.408 C197.892,56.388 195.408,57.504 192.24,57.504 C185.58,57.504 181.404,52.5 181.404,44.292 C181.404,35.904 186.156,30.792 193.824,30.792 Z M231.056,57 L224.828,57 L224.828,46.38 L215.36,46.38 L215.36,57 L209.132,57 L209.132,31.368 L215.36,31.368 L215.36,41.088 L224.828,41.088 L224.828,31.368 L231.056,31.368 L231.056,57 Z M254.932,36.66 L247.084,36.66 L247.084,57 L240.856,57 L240.856,36.66 L233.008,36.66 L233.008,31.368 L254.932,31.368 L254.932,36.66 Z M265.416,30.792 C271.86,30.792 275.46,33.672 275.46,39.18 L268.98,39.18 C268.98,36.912 267.648,35.616 265.164,35.616 C263.112,35.616 261.78,36.588 261.78,38.028 C261.78,39.72 263.148,40.26 266.892,41.196 C271.824,42.42 276.144,43.752 276.144,49.368 C276.144,54.372 272.04,57.576 265.668,57.576 C259.008,57.576 254.94,54.372 254.94,48.648 L261.564,48.648 C261.564,51.276 262.968,52.608 265.812,52.608 C268.152,52.608 269.592,51.564 269.592,49.908 C269.592,47.964 268.116,47.568 264.696,46.668 C259.8,45.408 255.372,44.148 255.372,38.604 C255.372,33.924 259.26,30.792 265.416,30.792 Z M7.964,81.708 L19.556,81.708 L19.556,87 L1.736,87 L1.736,61.368 L7.964,61.368 L7.964,81.708 Z M36.592,81.564 L27.304,81.564 L25.648,87 L19.096,87 L27.844,61.368 L36.016,61.368 L44.764,87 L38.212,87 L36.592,81.564 Z M35.08,76.452 L34.54,74.724 C33.604,71.664 32.704,68.496 31.948,65.4 L31.876,65.4 C31.12,68.496 30.256,71.664 29.356,74.724 L28.852,76.452 L35.08,76.452 Z M73.392,87 L65.112,87 L62.952,76.74 C62.196,73.32 61.548,69.864 61.044,66.444 L60.972,66.444 C60.468,69.864 59.82,73.32 59.1,76.74 L56.94,87 L48.66,87 L43.476,61.368 L49.524,61.368 L51.252,70.62 C51.9,74.148 52.476,77.784 52.908,81.348 L52.98,81.348 C53.556,77.784 54.24,74.184 55.032,70.62 L57.048,61.368 L65.004,61.368 L67.02,70.62 C67.812,74.184 68.496,77.784 69.036,81.348 L69.108,81.348 C69.576,77.784 70.152,74.148 70.8,70.62 L72.492,61.368 L78.576,61.368 L73.392,87 Z M88.24,61.368 L98.644,61.368 C105.196,61.368 108.076,64.032 108.076,68.676 C108.076,71.808 106.276,74.076 103.36,74.94 L103.36,75.012 C105.196,75.66 106.096,76.848 107.284,80.16 L109.768,87 L103.072,87 L101.128,81.204 C100.228,78.576 99.22,77.64 96.808,77.64 L94.468,77.64 L94.468,87 L88.24,87 L88.24,61.368 Z M94.468,66.192 L94.468,72.924 L97.888,72.924 C100.768,72.924 101.92,71.628 101.92,69.468 C101.92,67.2 100.372,66.192 97.636,66.192 L94.468,66.192 Z M130.188,66.588 L118.308,66.588 L118.308,71.448 L129.396,71.448 L129.396,76.596 L118.308,76.596 L118.308,81.78 L130.476,81.78 L130.476,87 L112.08,87 L112.08,61.368 L130.188,61.368 L130.188,66.588 Z M146.756,87 L138.62,87 L130.916,61.368 L137.432,61.368 L140.204,71.268 C141.176,74.58 142.004,78 142.652,81.348 L142.724,81.348 C143.372,78 144.236,74.58 145.172,71.268 L147.98,61.368 L154.46,61.368 L146.756,87 Z M162.064,87 L155.836,87 L155.836,61.368 L162.064,61.368 L162.064,87 Z M184.824,66.588 L172.944,66.588 L172.944,71.448 L184.032,71.448 L184.032,76.596 L172.944,76.596 L172.944,81.78 L185.112,81.78 L185.112,87 L166.716,87 L166.716,61.368 L184.824,61.368 L184.824,66.588 Z M215.756,87 L207.476,87 L205.316,76.74 C204.56,73.32 203.912,69.864 203.408,66.444 L203.336,66.444 C202.832,69.864 202.184,73.32 201.464,76.74 L199.304,87 L191.024,87 L185.84,61.368 L191.888,61.368 L193.616,70.62 C194.264,74.148 194.84,77.784 195.272,81.348 L195.344,81.348 C195.92,77.784 196.604,74.184 197.396,70.62 L199.412,61.368 L207.368,61.368 L209.384,70.62 C210.176,74.184 210.86,77.784 211.4,81.348 L211.472,81.348 C211.94,77.784 212.516,74.148 213.164,70.62 L214.856,61.368 L220.94,61.368 L215.756,87 Z" id="COLUMBIAHUMANRIGHTSLAWREVIEW" fill="#03001D" fill-rule="nonzero"></path>
    </g>
</svg>